<?xml version="1.0" standalone="no"?><!DOCTYPE svg PUBLIC "-//W3C//DTD SVG 1.1//EN" "http://www.w3.org/Graphics/SVG/1.1/DTD/svg11.dtd"><svg t="1723197968876" class="icon" viewBox="0 0 1024 1024" version="1.1" xmlns="http://www.w3.org/2000/svg" p-id="41295" xmlns:xlink="http://www.w3.org/1999/xlink" width="32" height="32"><path d="M236.504615 247.177846c36.864-32.807385 94.286769-28.711385 171.204923 13.154462a19.692308 19.692308 0 1 1-18.825846 34.579692c-63.881846-34.776615-105.393231-36.824615-125.085538-19.377231-23.394462 24.418462-32.295385 76.288-23.394462 143.950769a19.692308 19.692308 0 0 1-39.030154 5.12c-10.279385-78.336 0.669538-141.548308 35.131077-177.427692zM806.754462 238.198154c-36.509538-32.492308-95.350154-26.624-165.691077 10.673231a19.692308 19.692308 0 0 0 18.432 34.816c57.462154-30.444308 99.918769-34.894769 119.965538-17.171693 23.394462 24.418462 24.064 79.950769 15.202462 147.652923a19.692308 19.692308 0 0 0 39.030153 5.12c10.279385-78.375385 7.483077-145.211077-26.939076-181.090461z" fill="currentColor" p-id="41296"></path><path d="M566.547692 590.060308a45.174154 45.174154 0 0 0-37.454769-70.498462h-20.401231a45.174154 45.174154 0 0 0-37.454769 70.498462 57.501538 57.501538 0 0 0 95.310769 0z" fill="currentColor" p-id="41297"></path><path d="M524.603077 576.236308a19.692308 19.692308 0 0 1 19.692308 19.692307 66.678154 66.678154 0 1 1-133.395693 0 19.692308 19.692308 0 0 1 39.030154-3.544615l0.354462 3.544615a27.293538 27.293538 0 0 0 54.350769 3.702154l0.236308-3.702154a19.692308 19.692308 0 0 1 19.692307-19.692307z" fill="currentColor" p-id="41298"></path><path d="M608.098462 576.236308a19.692308 19.692308 0 0 1 19.692307 19.692307 66.678154 66.678154 0 1 1-133.356307 0 19.692308 19.692308 0 0 1 39.069538-3.544615l0.315077 3.544615a27.293538 27.293538 0 0 0 54.350769 3.702154l0.275692-3.702154a19.692308 19.692308 0 0 1 19.692308-19.692307z" fill="currentColor" p-id="41299"></path><path d="M525.193846 232.211692l-0.984615 0.039385c-203.382154 10.082462-358.321231 165.651692-358.321231 350.247385 0 174.788923 146.195692 282.387692 359.305846 282.387692 210.550154 0 347.884308-106.102154 347.884308-282.387692 0-189.046154-151.158154-350.286769-347.884308-350.28677z m-9.531077 40.054154l9.806769-0.669538c174.08 0 308.224 143.084308 308.224 310.902154 0 152.024615-117.838769 243.003077-308.499692 243.003076-193.496615 0-319.921231-93.065846-319.921231-243.003076 0-160.059077 132.844308-296.487385 310.390154-310.232616z" fill="currentColor" p-id="41300"></path><path d="M69.198769 551.620923c39.542154-22.055385 108.307692-25.363692 207.950769-11.736615a19.692308 19.692308 0 1 1-5.356307 38.990769c-91.766154-12.524308-153.481846-9.531077-183.453539 7.128615a19.692308 19.692308 0 1 1-19.140923-34.382769zM954.801231 551.620923c-39.542154-22.055385-108.307692-25.363692-207.950769-11.736615a19.692308 19.692308 0 0 0 5.356307 38.990769c91.766154-12.524308 153.481846-9.531077 183.414154 7.128615a19.692308 19.692308 0 1 0 19.180308-34.382769zM84.243692 693.287385c42.850462-61.833846 110.198154-90.072615 199.24677-84.755693a19.692308 19.692308 0 0 1-2.363077 39.305846c-76.051692-4.529231-129.969231 18.116923-164.548923 67.899077a19.692308 19.692308 0 1 1-32.33477-22.44923zM948.617846 702.070154c-42.889846-61.833846-110.198154-90.033231-199.286154-84.755692a19.692308 19.692308 0 1 0 2.363077 39.305846c76.051692-4.529231 130.008615 18.116923 164.548923 67.899077a19.692308 19.692308 0 0 0 32.374154-22.449231z" fill="currentColor" p-id="41301"></path></svg>
