<?xml version="1.0" standalone="no"?><!DOCTYPE svg PUBLIC "-//W3C//DTD SVG 1.1//EN" "http://www.w3.org/Graphics/SVG/1.1/DTD/svg11.dtd"><svg t="1723187955959" class="icon" viewBox="0 0 1024 1024" version="1.1" xmlns="http://www.w3.org/2000/svg" p-id="18328" data-spm-anchor-id="a313x.search_index.0.i27.81863a81EVKm4A" xmlns:xlink="http://www.w3.org/1999/xlink" width="32" height="32"><path d="M668.09 293.109m-156 0a156 156 0 1 0 312 0 156 156 0 1 0-312 0Z" fill="#fc7389" p-id="18329"></path><path d="M736.445 605.445C796.13 545.761 829 466.406 829 382c0-39.446-7.185-77.939-21.355-114.408-5.601-14.414-21.823-21.56-36.239-15.958-14.414 5.601-21.56 21.826-15.959 36.24C767.095 317.85 773 349.519 773 382c0 143.364-116.636 260-260 260S253 525.364 253 382s116.636-260 260-260c35.111 0 69.158 6.871 101.195 20.42 14.243 6.026 30.672-0.64 36.695-14.881 6.024-14.243-0.639-30.671-14.881-36.695C597.033 74.359 555.646 66 513 66c-84.407 0-163.761 32.87-223.446 92.554S197 297.593 197 382s32.87 163.761 92.554 223.445C342.11 658.001 409.921 689.752 483 696.59V781h-90c-15.464 0-28 12.536-28 28s12.536 28 28 28h90v90c0 15.464 12.536 28 28 28s28-12.536 28-28v-90h90c15.464 0 28-12.536 28-28s-12.536-28-28-28h-90v-84.068c74.602-6.036 143.932-37.973 197.445-91.487z" p-id="18330" fill="#fc7389"></path><path d="M666.745 172.304a262.056 262.056 0 0 1 41.988 38.552c5.536 6.326 13.288 9.56 21.082 9.56a27.894 27.894 0 0 0 18.429-6.931c11.637-10.184 12.814-27.874 2.63-39.51a318.18 318.18 0 0 0-50.977-46.803c-12.463-9.154-29.987-6.474-39.143 5.99-9.153 12.463-6.472 29.987 5.991 39.142z" p-id="18331" fill="#fc7389"></path></svg>