<?xml version="1.0" standalone="no"?><!DOCTYPE svg PUBLIC "-//W3C//DTD SVG 1.1//EN" "http://www.w3.org/Graphics/SVG/1.1/DTD/svg11.dtd"><svg t="1723103369894" class="icon" viewBox="0 0 1024 1024" version="1.1" xmlns="http://www.w3.org/2000/svg" p-id="8577" xmlns:xlink="http://www.w3.org/1999/xlink" width="32" height="32"><path d="M573.318945 890.670534c-21.683329 19.700204-45.780769 40.757436-61.270109 45.492474-18.296583-5.486354-48.148288-33.203507-91.811978-73.745449-7.414149-6.884151-15.288407-14.193465-23.669366-21.922119C234.318186 690.858341 60.242932 471.899238 58.26272 306.117581c-0.678514-56.71562 18.299495-102.962322 58.014406-141.387184 51.651518-49.968337 119.042814-77.487469 189.765527-77.487469 69.476344 0 135.548469 26.261114 186.052628 73.946383a29.120774 29.120774 0 0 0 39.982823 0c50.512895-47.685268 116.593757-73.946383 186.0701-73.946383 70.719801 0 138.114009 27.519132 189.765527 77.484557 81.762398 79.106584 77.219558 198.644451-13.497479 355.293832-8.06063 13.916818-3.311032 31.732908 10.608698 39.793539 13.913906 8.063542 31.732908 3.313944 39.793539-10.605786 131.85013-227.680775 74.729731-357.515748 3.593503-426.339786-62.580544-60.530442-144.354591-93.867904-230.269612-93.867905-75.515992 0-147.735513 25.541831-206.0586 72.411718-58.314351-46.872799-130.528047-72.411718-206.044039-72.411718-85.912109 0-167.686155 33.337463-230.260876 93.870817C24.645698 172.345479-0.840804 234.230037 0.024083 306.810655c2.772298 231.926584 273.994455 499.890126 357.055639 576.498147 8.331454 7.684972 16.156206 14.947694 23.526674 21.788164 60.871155 56.520511 91.427583 84.887057 127.682948 89.654128a29.0305 29.0305 0 0 0 7.585961 0c29.146983-3.82647 55.399361-23.538322 96.605257-60.973077 11.901661-10.815456 12.786932-29.231433 1.971477-41.136006-10.812544-11.901661-29.228521-12.78402-41.133094-1.971477z" p-id="8578"></path><path d="M924.693121 607.409849h-93.527191v-93.518455c0-16.080492-13.037371-29.120774-29.120774-29.120774h-117.109195c-16.083404 0-29.120774 13.040283-29.120774 29.120774v93.518455h-93.527191c-16.083404 0-29.120774 13.040283-29.120775 29.120775v117.120842c0 16.080492 13.037371 29.120774 29.120775 29.120775h93.527191v93.518455c0 16.080492 13.037371 29.120774 29.120774 29.120774h117.109195c16.083404 0 29.120774-13.040283 29.120774-29.120774v-93.518455h93.527191c16.083404 0 29.120774-13.040283 29.120775-29.120775v-117.120842c0-16.083404-13.037371-29.120774-29.120775-29.120775z m-29.120774 117.120843h-93.527191c-16.083404 0-29.120774 13.040283-29.120775 29.120774v93.518455h-58.867645v-93.518455c0-16.080492-13.037371-29.120774-29.120775-29.120774h-93.527191v-58.879294h93.527191c16.083404 0 29.120774-13.040283 29.120775-29.120774v-93.518455h58.867645v93.518455c0 16.080492 13.037371 29.120774 29.120775 29.120774h93.527191v58.879294z" p-id="8579"></path></svg>