<?xml version="1.0" standalone="no"?><!DOCTYPE svg PUBLIC "-//W3C//DTD SVG 1.1//EN" "http://www.w3.org/Graphics/SVG/1.1/DTD/svg11.dtd"><svg t="1722398320877" class="icon" viewBox="0 0 1024 1024" version="1.1" xmlns="http://www.w3.org/2000/svg" p-id="16383" xmlns:xlink="http://www.w3.org/1999/xlink" width="32" height="32"><path d="M153.942475 66.86252l716.035139 0 0 53.60874-716.035139 0 0-53.60874Z" fill="" p-id="16384"></path><path d="M485.697926 851.175741l0-205.484949 52.512821 0 0 205.484949-52.512821 0Z" fill="" p-id="16385"></path><path d="M614.696812 774.701093l-205.48495 0 0-52.512821 205.48495 0 0 52.512821Z" fill="" p-id="16386"></path><path d="M849.497614 174.993266l93.187425 212.597013H81.223634l93.198841-212.597013h675.075139m17.900023-27.397993H156.511037L39.293289 414.988272H984.615385L867.397637 147.595273z" fill="" p-id="16387"></path><path d="M498.25534 167.321828h27.397993v234.024527h-27.397993zM670.811327 169.949753l26.89113-5.246716L743.364638 398.732129l-26.891131 5.246716zM281.531505 398.717289l45.659897-234.030234 26.891131 5.246715-45.659898 234.030234zM955.425106 469.841338a68.346577 68.346577 0 0 1-18.470814 32.911839 69.579487 69.579487 0 0 1-116.55563-31.964325l-0.251148-0.993178h135.277592m-187.927403 0l-0.239732 0.993178a69.579487 69.579487 0 0 1-134.775295 0l-0.239733-0.993178h135.25476m-187.90457 0l-0.251149 0.993178a69.568071 69.568071 0 0 1-134.7068 0l-0.251148-0.993178h135.209097m-187.915987 0l-0.251148 0.993178a69.568071 69.568071 0 0 1-134.706801 0l-0.251148-0.993178H391.677146m-187.915987 0l-0.251148 0.993178a69.316923 69.316923 0 0 1-67.3534 52.158929 69.259844 69.259844 0 0 1-49.20223-20.194604A68.346577 68.346577 0 0 1 68.494983 469.841338h135.277592m780.146444-27.397994H39.955407a95.767402 95.767402 0 0 0 27.637726 79.739577 97.25146 97.25146 0 0 0 136.989966 0 95.66466 95.66466 0 0 0 25.468718-44.681561 95.66466 95.66466 0 0 0 25.468718 44.681561 97.25146 97.25146 0 0 0 136.989967 0 95.66466 95.66466 0 0 0 25.468718-44.681561 95.66466 95.66466 0 0 0 25.468718 44.681561 97.25146 97.25146 0 0 0 136.989966 0 95.66466 95.66466 0 0 0 25.468718-44.681561 95.66466 95.66466 0 0 0 25.468718 44.681561 97.240045 97.240045 0 0 0 136.989967 0 95.66466 95.66466 0 0 0 25.468718-44.681561 95.66466 95.66466 0 0 0 25.468717 44.681561 97.25146 97.25146 0 0 0 136.989967 0 95.733155 95.733155 0 0 0 27.637726-79.739577z" fill="" p-id="16388"></path><path d="M881.792999 538.336321v391.562988H142.115674v-391.562988h-27.397993v418.960981h794.473311v-418.960981h-27.397993z" fill="" p-id="16389"></path></svg>