<?xml version="1.0" standalone="no"?><!DOCTYPE svg PUBLIC "-//W3C//DTD SVG 1.1//EN" "http://www.w3.org/Graphics/SVG/1.1/DTD/svg11.dtd"><svg t="1723104384434" class="icon" viewBox="0 0 1024 1024" version="1.1" xmlns="http://www.w3.org/2000/svg" p-id="14724" xmlns:xlink="http://www.w3.org/1999/xlink" width="32" height="32"><path d="M119.906263 621.379232c-6.702545 5.166545-12.812929 10.798545-17.404122 17.671758-1.221818 34.146263 6.848646 88.630303 64.561132 114.990545 0 0 9.241859 3.368081 24.025212 0 0 0 8.075636-59.141172 36.752808-70.403878-0.001293-0.001293-69.894465-32.006465-107.93503-62.258425z m319.984484-208.338747C418.689293 505.545697 251.880727 678.111677 222.188606 725.060525c-29.681778 46.94497-70.692202 196.035232 14.131717 207.075556 278.509899 36.287354 284.156121 5.520808 284.156121-18.606546 0-24.115717-96.131879-42.136566-96.131878-42.136565 5.661737-113.202424-108.849131-113.197253-108.849132-113.197253 111.676768-38.666343 139.954424 104.904404 139.954425 104.904404 69.276444-34.509576 79.166061-107.672566 79.16606-107.672565l22.621091 59.363555c53.404444 140.183273 93.297778 102.163394 103.186101 60.739232 9.894788-41.41899-53.888-150.47499-53.888-150.474989l16.469333-11.057132c29.030141 74.555475 109.525333 202.951111 137.786182 179.480566 28.277657-23.465374 1.420929-92.505212-14.135596-133.913859-15.54101-41.420283-81.989818-193.283879-81.989818-193.283878-145.608404-46.942384-224.774465-153.240566-224.774465-153.240566z m-105.439676-265.828849c10.308525 8.631596 27.514828 20.414061 49.600646 25.960728 0 0-14.848 163.595636 104.970344 258.848323 114.116525 90.742949 150.323717 111.949576 222.227394 115.560727 0.076283-1.935515 1.030465-3.838707 3.221979-5.116121 1.313616-0.762828 1.927758-3.025455 2.796606-4.439919 0.571475-0.924444 1.24897-1.772606 2.026021-2.530263l-15.040647-63.091071s126.171798 13.459394 179.181899-48.667151c27.434667-32.151273 40.080808-83.423677 38.85899-125.999838-6.817616-6.37802-12.708202-13.494303-16.550788-21.661738-7.899798-1.292929-15.666424-3.505131-23.13697-6.403879-7.302465 0.964525-14.217051-0.469333-20.283474-3.656404-7.692929 1.61099-15.687111 0.646465-23.738182-2.111353-0.256 0.813253-0.504242 1.631677-0.740849 2.450101 0 0-21.238949 3.070707-51.863272 6.141414-26.878707-19.505131-54.893899-59.707475-61.288728-142.399354a0.531394 0.531394 0 0 0 0.051718-0.071111c0.003879 0 11.918222 1.551515 23.646383-1.711838 4.146424-5.140687 7.187394-11.30796 7.945051-17.524364 0.055596-1.475232 0.10602-2.950465 0.140929-4.419232-0.297374-4.737293-2.09196-9.364687-5.915151-13.443879a7.315394 7.315394 0 0 1-1.247677-1.802343c-31.211313-16-86.765899-34.172121-98.073859 31.30699 0 0-104.961293-17.595475-163.282747 14.49503h-21.206626s-45.732202-84.600242-129.070546-13.181414a95.711677 95.711677 0 0 1-1.212768 6.348283c-0.246949 1.061495-0.667152 1.929051-1.207595 2.62206a93.403798 93.403798 0 0 1-0.808081 14.497616z m361.367272 131.176728c-13.579636-4.716606-23.907556-12.554343-23.907555-25.499152 0-37.793616 13.262869-38.824081 28.100525-30.025697 11.454061 6.798222 6.802101 37.974626 0.672323 55.399434-1.622626 0.050424-3.24396 0.090505-4.865293 0.125415z m-130.812121-31.01996s-0.667152-29.530505 11.59499-36.954505c0.991677-0.59604 2.02602-1.216646 3.075879-1.838545 9.612929 3.051313 17.232162 10.666667 18.02602 27.227798 0.813253 17.221818-4.514909 26.383515-12.621576 30.853171-10.969212-4.666182-18.200566-10.958869-20.075313-19.287919z m0 0" p-id="14725" fill="#2c2c2c"></path><path d="M735.354828 491.737212s-4.236929 91.106263 53.721212 110.439434c57.959434 19.321535 46.651475-35.904646 45.238303-57.980121-1.419636-22.096162-26.874828-57.990465-26.874828-57.990464l-72.084687 5.531151z m0 0M778.118465 839.879111c-19.744323-40.495838-51.353859-65.722182-70.606869-56.334222-19.251717 9.385374-18.858667 49.824323 0.880485 90.318869 19.74303 40.499717 51.353859 65.722182 70.604283 56.338101 19.25301-9.384081 18.857374-49.82303-0.877899-90.322748z m0 0M656.333576 845.273212c-19.741737-40.50101-51.352566-65.722182-70.604283-56.339394-19.259475 9.390545-18.858667 49.824323 0.879192 90.324041 19.74303 40.499717 51.352566 65.722182 70.605576 56.338101 19.251717-9.384081 18.858667-49.82303-0.880485-90.322748z m0 0" p-id="14726" fill="#2c2c2c"></path></svg>