<?xml version="1.0" standalone="no"?><!DOCTYPE svg PUBLIC "-//W3C//DTD SVG 1.1//EN" "http://www.w3.org/Graphics/SVG/1.1/DTD/svg11.dtd"><svg t="1722595713815" class="icon" viewBox="0 0 1024 1024" version="1.1" xmlns="http://www.w3.org/2000/svg" p-id="1390" xmlns:xlink="http://www.w3.org/1999/xlink" width="32" height="32"><path d="M263.16 574.663m-156 0a156 156 0 1 0 312 0 156 156 0 1 0-312 0Z" fill="#D7EEFF" p-id="1391"></path><path d="M420.845 287.069c-84.941-0.001-164.798 33.077-224.86 93.139-21.058 21.058-38.999 44.824-53.325 70.638-7.504 13.522-2.627 30.568 10.895 38.069 13.521 7.504 30.565 2.626 38.069-10.895 11.797-21.256 26.586-40.842 43.958-58.214 102.154-102.154 268.37-102.154 370.524 0s102.154 268.37 0 370.524-268.37 102.154-370.524 0c-27.136-27.136-47.547-59.001-60.667-94.709-5.335-14.517-21.424-21.96-35.938-16.626-14.515 5.333-21.959 21.423-16.627 35.938 15.941 43.386 40.715 82.076 73.634 114.995 60.062 60.062 139.919 93.14 224.86 93.14s164.798-33.078 224.86-93.14c60.062-60.062 93.14-139.919 93.14-224.86 0-75.537-26.179-147.04-74.211-204.19l127.074-127.074 35.886 172.906c3.142 15.141 17.964 24.869 33.106 21.726 15.141-3.143 24.868-17.964 21.726-33.106l-45.869-221.005a33.985 33.985 0 0 0-26.381-26.382L589.17 142.074c-15.141-3.143-29.963 6.584-33.106 21.726-3.142 15.139 6.582 29.962 21.726 33.106l175.248 36.372L625.035 361.28c-57.15-48.032-128.654-74.211-204.19-74.211z" p-id="1392"></path><path d="M159.512 623.822a263.739 263.739 0 0 1 3.63-66.16c1.72-9.406-1.475-18.572-7.76-24.857a27.873 27.873 0 0 0-14.745-7.725c-15.211-2.782-29.799 7.293-32.582 22.504a319.824 319.824 0 0 0-4.403 80.218c1.099 15.424 14.495 27.038 29.92 25.939 15.426-1.099 27.039-14.495 25.94-29.919z" p-id="1393"></path></svg>