<?xml version="1.0" standalone="no"?><!DOCTYPE svg PUBLIC "-//W3C//DTD SVG 1.1//EN"
        "http://www.w3.org/Graphics/SVG/1.1/DTD/svg11.dtd">
<svg t="1723100923690" class="icon" viewBox="0 0 1024 1024" version="1.1" xmlns="http://www.w3.org/2000/svg" p-id="5313"
     width="32" height="32">
    <path d="M413.088 329.92l-94.624 96.288c49.28 109.408 153.792 231.264 275.04 272.192l81.824-81.568c0 0 193.984 33.856 237.568 55.04 37.792 18.336 50.272 58.944 44.352 109.088-6.368 53.856-76.896 172.608-204.064 173.92-127.168 1.312-314.4-94.496-448.544-235.84C170.496 577.696 50.88 398.528 70.016 246.4c19.136-152.16 151.68-179.36 184.832-181.792 33.536-2.464 60.128 7.36 80.352 32.416C361.216 129.28 413.088 329.92 413.088 329.92L413.088 329.92zM305.632 128.48C289.856 107.84 262.752 104.384 235.648 110.784 211.584 116.448 123.84 152.832 111.424 250.304c-13.792 108.416 67.04 291.84 212.128 432.192 145.088 140.352 284.864 222.272 404.992 232.064 120.16 9.792 178.752-95.968 187.296-127.744 8.544-31.776 1.472-63.872-15.776-76.64-21.984-16.288-210.976-50.112-210.976-50.112l-85.76 84.512c-140.992-45.856-273.728-174.272-330.24-331.168l93.664-94.336C366.752 319.104 321.408 149.088 305.632 128.48L305.632 128.48zM305.632 128.48"
          p-id="5314"></path>
</svg>
