<?xml version="1.0" standalone="no"?><!DOCTYPE svg PUBLIC "-//W3C//DTD SVG 1.1//EN" "http://www.w3.org/Graphics/SVG/1.1/DTD/svg11.dtd"><svg t="1722398235454" class="icon" viewBox="0 0 1024 1024" version="1.1" xmlns="http://www.w3.org/2000/svg" p-id="14132" xmlns:xlink="http://www.w3.org/1999/xlink" width="32" height="32"><path d="M618.273478 251.850249a166.486801 166.486801 0 0 0-98.999588-33.807679c-88.333397 0-160.004169 69.29632-160.00417 154.57308 0.052766 30.340225 6.795457 50.353466 25.342568 80.535395q0 0.987471 29.835183 33.227257l-9.158602 8.902312a41.846896 41.846896 0 0 0 0 62.1805 44.975143 44.975143 0 0 0 33.136802 12.445146h1.899562a46.335742 46.335742 0 0 0 12.912498 33.811448 42.385859 42.385859 0 0 0 34.749922 12.448915 46.34328 46.34328 0 0 0 12.889884 33.811448 44.993988 44.993988 0 0 0 33.129265 12.445145h1.79403a46.335742 46.335742 0 0 0 12.912498 33.796373 44.982681 44.982681 0 0 0 33.102882 12.445145 53.998062 53.998062 0 0 0 33.121726-12.445145l20.258224-19.568503 11.065702 10.651115a49.957724 49.957724 0 0 0 69.869204 0 52.426401 52.426401 0 0 0 14.815829-29.910562 58.592439 58.592439 0 0 0 33.121726-15.935214 44.040438 44.040438 0 0 0 14.691453-31.998572 46.772943 46.772943 0 0 0 33.121726-14.246715 47.696341 47.696341 0 0 0 14.695222-30.453294 46.309359 46.309359 0 0 0 31.320158-14.246714c14.714067-15.905062 14.714067-46.313128-5.770297-65.693182 18.392583-19.57981 49.610979-67.502289 51.446469-124.357232a138.358963 138.358963 0 0 0-49.614748-114.105628c-99.274723-86.833347-206.019549-10.421208-229.892218 10.816949l-5.79291-5.318019z m-178.705809 295.080358a16.805846 16.805846 0 0 1-12.448914-5.182337c-5.634613-10.357135-5.634613-20.744422 0-25.930527l51.928896-51.910052a17.687786 17.687786 0 0 1 12.531832-3.441072 16.809615 16.809615 0 0 1 12.497912 5.182337 16.281959 16.281959 0 0 1 0 24.185493l-52.011814 51.913821a16.263114 16.263114 0 0 1-12.497912 5.182337z m36.559029 37.444737a14.81206 14.81206 0 0 1 0-23.164102l53.379951-53.259344a17.348578 17.348578 0 0 1 12.912498-5.325558 20.540898 20.540898 0 0 1 12.912498 5.325558 14.81206 14.81206 0 0 1 0 23.164102l-53.428947 53.240499a18.324742 18.324742 0 0 1-25.776 0z m49.475296 49.437606a17.970459 17.970459 0 0 1-2.630743-23.265865 15.328409 15.328409 0 0 1 2.336763-2.336762l53.364875-53.23673c7.138433-7.089436 18.927778-4.650911 26.066211 2.415911a14.81206 14.81206 0 0 1 0 23.164102l-53.379951 53.259344a18.305897 18.305897 0 0 1-25.757155 0z m69.107871 42.611997a15.969134 15.969134 0 0 1-23.872669 0 14.81206 14.81206 0 0 1 0-23.164102l53.38372-53.240498a17.390037 17.390037 0 0 1 12.912498-5.220027 28.188142 28.188142 0 0 1 11.061933 3.542834 27.053681 27.053681 0 0 1 7.349495 14.227869 16.545787 16.545787 0 0 1-5.672302 10.594581l-55.162675 53.244268z m84.636036-8.79678a28.146683 28.146683 0 0 1-11.061933-3.527758l-9.162371-10.647346 11.061933-10.647346a37.143219 37.143219 0 0 0 9.022919-14.367321l11.065702 10.651115c0 1.7978 1.7978 1.7978 1.797799 3.542833a18.464194 18.464194 0 0 1-1.729958 21.468065c-3.663441 3.527758-5.736375 3.527758-10.994091 3.527758z m129.995614-134.318625l-52.810836-50.85474a17.412651 17.412651 0 0 0-13.100947-5.084343c-9.060609 0-12.791891 1.733727-14.540694 5.084343l-1.778955 1.729958a16.809615 16.809615 0 0 0 0 22.089945l52.810836 50.873585 1.763879 1.729958a12.671284 12.671284 0 0 1 3.784048 8.608332 22.195476 22.195476 0 0 1-3.663441 10.179993 15.034429 15.034429 0 0 1-20.050931 0l-52.690229-51.046957a17.533258 17.533258 0 0 0-12.791891-5.080574 13.53061 13.53061 0 0 0-10.92625 5.080574 12.863502 12.863502 0 0 0-3.663441 15.21534 9.324437 9.324437 0 0 0 5.736376 8.521646l52.810836 49.268002a17.043292 17.043292 0 0 1-1.782724 20.397677 19.35744 19.35744 0 0 1-18.215442 5.080574l-1.782723-1.711113-36.822857-33.796372a16.455332 16.455332 0 0 0-10.937557-5.065498l-1.711113-1.831721c-8.87216-6.618315-13.485382-10.176224-30.996026-10.176224 0-15.373637-3.026485-25.00336-10.198838-33.385555-11.51421-12.494142-24.166649-12.494142-36.943464-10.786797a51.966586 51.966586 0 0 0-13.138637-35.435875c-9.124681-9.335744-21.52083-15.558317-42.246407-10.458898q-1.217378-25.666699-15.038199-38.775184c-13.794438-13.116023-42.41978-14.932667-57.563509-3.026485l-25.414179 18.671488q-10.783029-12.946419-20.503208-26.722012c-6.897219-10.082-21.332382-34.712232-21.694203-53.436485-1.556585-82.042983 57.827338-117.026581 125.175099-117.026582 28.312518-0.124376 49.35092 5.600692 71.806455 22.244473a1.733727 1.733727 0 0 1 1.763879 1.729958l-98.532235 97.929201 20.672811 27.86401c23.61261 23.785982 45.114595 38.549046 74.211059 38.549046h3.648365c47.330751-1.729958 87.349696-37.388202 109.164506-59.398999l120.471422 116.996429 5.702455 5.084343a11.781807 11.781807 0 0 1 3.214933 10.127228 21.170316 21.170316 0 0 1-3.214933 10.044311 15.004278 15.004278 0 0 1-18.204135 1.729958z m16.662625-68.210856q-121.50412-122.830798-124.496684-119.050519l-7.537944 9.490271c-16.869919 19.10115-51.910052 56.941629-88.280632 58.547212-30.114086 7.017826-46.671181-7.104512-63.198122-23.096261l96.666594-90.116121 18.18529-15.969135c14.830905-14.295711 97.443003-78.081793 171.480689-9.576958 25.221961 22.538453 38.413363 49.71651 36.804012 83.233979h0.188449c-1.605582 41.624527-28.350208 92.068449-39.811652 106.537532z m0 0M405.654459 712.520393H304.352029a25.105123 25.105123 0 0 0-25.203116 25.693082 25.414178 25.414178 0 0 0 25.203116 25.696851h101.294892a25.70062 25.70062 0 0 0 0-51.389933zM324.885389 620.772307H187.031468a12.17378 12.17378 0 0 1-12.482836-12.418763V299.294069a13.519303 13.519303 0 0 1 12.482836-12.475298h132.667815c0.030152 0 0.048997 0.015076 0.07538 0.015076s0.045228-0.015076 0.075379-0.015076h0.437201l-0.011307-0.086686a19.749413 19.749413 0 0 0-0.501273-39.48752c-0.158297 0-0.297749 0.086686-0.456046 0.090455v-0.064072H187.031468A52.739226 52.739226 0 0 0 135.000809 299.294069v308.999171A51.469082 51.469082 0 0 0 187.031468 660.323899H324.885389a19.772027 19.772027 0 1 0 0-39.547823z" fill="#42526E" p-id="14133"></path></svg>